<svg width="16" height="16" viewBox="0 0 16 16" fill="none" xmlns="http://www.w3.org/2000/svg">
<g id="Iconly/Bulk/Shield Done">
<g id="Shield Done">
<path id="Fill 1" opacity="0.4" d="M8.05764 14.6668C7.97509 14.6668 7.89254 14.6479 7.81804 14.6093L5.41731 13.3666C4.73608 13.0136 4.20318 12.6174 3.78707 12.1559C2.8763 11.1465 2.36958 9.85083 2.36153 8.50677L2.33334 4.083C2.32998 3.57244 2.65952 3.11418 3.15215 2.9416L7.56031 1.40469C7.82207 1.31121 8.11402 1.3099 8.38047 1.40011L12.8054 2.88472C13.3007 3.05012 13.6356 3.50511 13.6383 4.01502L13.6665 8.44205C13.6752 9.78415 13.186 11.0851 12.2893 12.1055C11.8779 12.5736 11.3497 12.9756 10.6752 13.3352L8.2959 14.606C8.22208 14.6459 8.14019 14.6662 8.05764 14.6668Z" fill="#EA9411"/>
<path id="Fill 4" d="M7.54604 9.54728C7.41718 9.54793 7.28831 9.50151 7.18898 9.40607L5.9111 8.17707C5.71378 7.98618 5.71176 7.67631 5.90707 7.48412C6.10238 7.29127 6.42118 7.28931 6.61917 7.47954L7.53866 8.36338L9.78368 6.14986C9.97966 5.95701 10.2985 5.95505 10.4958 6.14528C10.6938 6.33617 10.6958 6.64669 10.5005 6.83823L7.90108 9.40149C7.80309 9.49825 7.6749 9.54662 7.54604 9.54728Z" fill="#EA9411"/>
</g>
</g>
</svg>
