<svg width="18" height="16" viewBox="0 0 18 16" fill="none" xmlns="http://www.w3.org/2000/svg">
<path d="M8.35841 4.0756V0.73475C8.35841 0.379521 8.64174 0.0834961 9.00007 0.0834961C9.32091 0.0834961 9.59272 0.332239 9.6358 0.647313L9.64174 0.73475V4.0756L13.625 4.07585C15.6083 4.07585 17.2378 5.69998 17.3293 7.7255L17.3333 7.90524V12.1047C17.3333 14.1444 15.7605 15.8187 13.8067 15.9127L13.6333 15.9168H4.36666C2.38332 15.9168 0.761731 14.3008 0.670688 12.2679L0.666656 12.0874L0.666656 7.89663C0.666656 5.85691 2.23158 4.17451 4.18499 4.08003L4.35832 4.07585H8.35832V9.41118L7.02499 8.03432C6.77499 7.77616 6.36666 7.77616 6.11666 8.03432C5.99166 8.1634 5.93332 8.33551 5.93332 8.50761C5.93332 8.63841 5.97066 8.77472 6.04959 8.8901L6.11666 8.9723L8.54166 11.4851C8.65832 11.6141 8.82499 11.683 8.99999 11.683C9.13888 11.683 9.27777 11.6352 9.38772 11.5445L9.44999 11.4851L11.875 8.9723C12.125 8.71414 12.125 8.29248 11.875 8.03432C11.6477 7.79963 11.2896 7.77829 11.0385 7.97031L10.9667 8.03432L9.64166 9.41118V4.07585L8.35841 4.0756Z" fill="#4FAA89"/>
</svg>
