<svg width="15" height="14" viewBox="0 0 15 14" fill="none" xmlns="http://www.w3.org/2000/svg">
<path d="M0.917484 0.758305H13.7505V13.2413H0.917484V0.758305ZM0.333984 13.8248H14.334V0.174805H0.333984V13.8248ZM9.77248 5.77481C9.31148 5.77481 9.15398 6.0083 9.15398 6.2008C9.15398 6.4108 9.25898 6.55681 9.87748 6.87731C10.7935 7.32081 11.0775 7.7463 11.0775 8.3708C11.0775 9.30431 10.366 9.8058 9.40348 9.8058C8.99041 9.82111 8.57984 9.73529 8.20748 9.5558C8.16648 9.5383 8.16098 9.5093 8.16098 9.4623V8.6038C8.16098 8.5453 8.18998 8.5278 8.23098 8.5573C8.58068 8.78217 8.98773 8.9016 9.40348 8.9013C9.86448 8.9013 10.057 8.7088 10.057 8.4463C10.057 8.2363 9.92299 8.0498 9.33348 7.7463C8.50498 7.3498 8.16098 6.94631 8.16098 6.27631C8.16098 5.52381 8.74998 4.89981 9.77098 4.89981C10.1264 4.88454 10.4813 4.94012 10.815 5.0633C10.8342 5.07578 10.8498 5.09315 10.86 5.11362C10.8703 5.1341 10.875 5.15694 10.8735 5.1798V5.9798C10.8735 6.02631 10.8445 6.0558 10.786 6.0383C10.4776 5.86075 10.1268 5.77004 9.77098 5.7758L9.77248 5.77481ZM4.75548 6.4688C4.88948 6.4803 4.99448 6.4803 5.22798 6.4803C5.91048 6.4803 6.55198 6.2413 6.55198 5.3138C6.55198 4.5728 6.09098 4.1998 5.31548 4.1998C5.08198 4.1998 4.86048 4.21131 4.75548 4.21731V6.4688ZM3.71698 3.3688C3.71698 3.3278 3.79848 3.2988 3.84548 3.2988C4.34688 3.27832 4.84867 3.26865 5.35048 3.2698C6.96648 3.2698 7.59648 4.1563 7.59648 5.2883C7.59648 6.7698 6.52298 7.4058 5.20498 7.4058C4.98348 7.4058 4.90748 7.3943 4.74998 7.3943V9.6343C4.74998 9.6808 4.73248 9.7043 4.67998 9.7043H3.78748C3.74098 9.7043 3.71748 9.6868 3.71748 9.6343V3.3713L3.71698 3.3688Z" fill="#31C5F0"/>
</svg>
