<svg width="13" height="14" viewBox="0 0 13 14" fill="none" xmlns="http://www.w3.org/2000/svg">
<path fill-rule="evenodd" clip-rule="evenodd" d="M3.87366 0.333496H9.46099C11.5203 0.333496 12.667 1.52016 12.667 3.5535V10.4402C12.667 12.5068 11.5203 13.6668 9.46099 13.6668H3.87366C1.84699 13.6668 0.666992 12.5068 0.666992 10.4402V3.5535C0.666992 1.52016 1.84699 0.333496 3.87366 0.333496ZM4.05364 3.44016V3.4335H6.04631C6.33364 3.4335 6.56698 3.66683 6.56698 3.95283C6.56698 4.24683 6.33364 4.48017 6.04631 4.48017H4.05364C3.76631 4.48017 3.53364 4.24683 3.53364 3.96016C3.53364 3.6735 3.76631 3.44016 4.05364 3.44016ZM4.05364 7.4935H9.28031C9.56698 7.4935 9.80031 7.26017 9.80031 6.9735C9.80031 6.68683 9.56698 6.45283 9.28031 6.45283H4.05364C3.76631 6.45283 3.53364 6.68683 3.53364 6.9735C3.53364 7.26017 3.76631 7.4935 4.05364 7.4935ZM4.05367 10.5402H9.28034C9.54634 10.5135 9.74701 10.2862 9.74701 10.0202C9.74701 9.74683 9.54634 9.52016 9.28034 9.4935H4.05367C3.85367 9.4735 3.66034 9.56683 3.55367 9.74016C3.44701 9.90683 3.44701 10.1268 3.55367 10.3002C3.66034 10.4668 3.85367 10.5668 4.05367 10.5402Z" fill="#777676"/>
</svg>
