<svg width="15" height="14" viewBox="0 0 15 14" fill="none" xmlns="http://www.w3.org/2000/svg">
<path fill-rule="evenodd" clip-rule="evenodd" d="M2.52655 0.333496H4.77989C5.71989 0.333496 6.47322 1.10016 6.47322 2.04083V4.3135C6.47322 5.26016 5.71989 6.02016 4.77989 6.02016H2.52655C1.59322 6.02016 0.833221 5.26016 0.833221 4.3135V2.04083C0.833221 1.10016 1.59322 0.333496 2.52655 0.333496ZM2.52655 7.97996H4.77989C5.71989 7.97996 6.47322 8.74063 6.47322 9.6873V11.96C6.47322 12.9 5.71989 13.6666 4.77989 13.6666H2.52655C1.59322 13.6666 0.833221 12.9 0.833221 11.96V9.6873C0.833221 8.74063 1.59322 7.97996 2.52655 7.97996ZM12.4733 0.333496H10.22C9.27997 0.333496 8.52664 1.10016 8.52664 2.04083V4.3135C8.52664 5.26016 9.27997 6.02016 10.22 6.02016H12.4733C13.4066 6.02016 14.1666 5.26016 14.1666 4.3135V2.04083C14.1666 1.10016 13.4066 0.333496 12.4733 0.333496ZM10.22 7.97996H12.4733C13.4066 7.97996 14.1666 8.74063 14.1666 9.6873V11.96C14.1666 12.9 13.4066 13.6666 12.4733 13.6666H10.22C9.27997 13.6666 8.52664 12.9 8.52664 11.96V9.6873C8.52664 8.74063 9.27997 7.97996 10.22 7.97996Z" fill="#777676"/>
</svg>
