<svg width="16" height="16" viewBox="0 0 16 16" fill="none" xmlns="http://www.w3.org/2000/svg">
<g id="Iconly/Bulk/Notification">
<g id="Notification">
<path id="Fill 1" d="M13.1797 7.76372C12.6927 7.19502 12.4714 6.7022 12.4714 5.86493V5.58025C12.4714 4.48919 12.2202 3.78621 11.6743 3.08323C10.8328 1.99149 9.41623 1.3335 8.02946 1.3335H7.9705C6.61288 1.3335 5.24069 1.96128 4.38464 3.0087C3.80887 3.72578 3.5286 4.45897 3.5286 5.58025V5.86493C3.5286 6.7022 3.32187 7.19502 2.82031 7.76372C2.45125 8.18269 2.33331 8.72117 2.33331 9.30397C2.33331 9.88743 2.5248 10.44 2.90909 10.8892C3.41066 11.4277 4.11895 11.7714 4.84248 11.8312C5.89001 11.9507 6.93754 11.9957 8.00031 11.9957C9.06242 11.9957 10.1099 11.9205 11.1581 11.8312C11.881 11.7714 12.5893 11.4277 13.0909 10.8892C13.4745 10.44 13.6666 9.88743 13.6666 9.30397C13.6666 8.72117 13.5487 8.18269 13.1797 7.76372Z" fill="#4FAA89"/>
<path id="Fill 4" opacity="0.4" d="M9.33911 12.819C9.00584 12.7478 6.97505 12.7478 6.64177 12.819C6.35686 12.8848 6.04877 13.0379 6.04877 13.3736C6.06533 13.6939 6.25284 13.9765 6.51257 14.1558L6.51191 14.1565C6.84783 14.4183 7.24206 14.5848 7.65485 14.6446C7.87482 14.6748 8.09877 14.6735 8.3267 14.6446C8.73882 14.5848 9.13305 14.4183 9.46898 14.1565L9.46831 14.1558C9.72804 13.9765 9.91555 13.6939 9.93211 13.3736C9.93211 13.0379 9.62402 12.8848 9.33911 12.819Z" fill="#4FAA89"/>
</g>
</g>
</svg>
