<svg width="18" height="18" viewBox="0 0 18 18" fill="none" xmlns="http://www.w3.org/2000/svg">
<path d="M16.8561 1.14842C16.4395 0.722586 15.8228 0.565086 15.2478 0.731753L1.83948 4.60592C1.23281 4.77425 0.802809 5.25509 0.686976 5.86509C0.568643 6.48675 0.981976 7.27675 1.52198 7.60675L5.71448 10.1668C6.14448 10.4301 6.69948 10.3643 7.05531 10.0076L11.8561 5.20675C12.0978 4.95592 12.4978 4.95592 12.7395 5.20675C12.9811 5.44759 12.9811 5.84009 12.7395 6.09009L7.93031 10.8909C7.57364 11.2476 7.50698 11.8009 7.76948 12.2318L10.3311 16.4401C10.6311 16.9393 11.1478 17.2234 11.7145 17.2234C11.7811 17.2234 11.8561 17.2234 11.9228 17.2143C12.5728 17.1318 13.0895 16.6893 13.2811 16.0643L17.2561 2.75675C17.4311 2.19009 17.2728 1.57342 16.8561 1.14842Z" fill="white"/>
<path opacity="0.4" fill-rule="evenodd" clip-rule="evenodd" d="M1.5087 13.0062C1.3487 13.0062 1.1887 12.9453 1.06704 12.8228C0.822869 12.5787 0.822869 12.1837 1.06704 11.9395L2.20454 10.8012C2.4487 10.5578 2.84454 10.5578 3.0887 10.8012C3.33204 11.0453 3.33204 11.4412 3.0887 11.6853L1.95037 12.8228C1.8287 12.9453 1.6687 13.0062 1.5087 13.0062ZM4.64311 13.9998C4.48311 13.9998 4.32311 13.939 4.20145 13.8165C3.95728 13.5723 3.95728 13.1773 4.20145 12.9332L5.33895 11.7948C5.58311 11.5515 5.97895 11.5515 6.22311 11.7948C6.46645 12.039 6.46645 12.4348 6.22311 12.679L5.08478 13.8165C4.96311 13.939 4.80311 13.9998 4.64311 13.9998ZM4.85445 16.9732C4.97612 17.0957 5.13612 17.1565 5.29612 17.1565C5.45612 17.1565 5.61612 17.0957 5.73778 16.9732L6.87612 15.8357C7.11945 15.5915 7.11945 15.1957 6.87612 14.9515C6.63195 14.7082 6.23612 14.7082 5.99195 14.9515L4.85445 16.0898C4.61028 16.334 4.61028 16.729 4.85445 16.9732Z" fill="white"/>
</svg>
