<svg width="16" height="16" viewBox="0 0 16 16" fill="none" xmlns="http://www.w3.org/2000/svg">
<g id="Iconly/Bulk/Video">
<g id="Video">
<path id="Fill 1" opacity="0.4" d="M14.2206 4.962C13.9413 4.78602 13.598 4.77046 13.3053 4.91936L12.3173 5.41817C11.9519 5.60227 11.7253 5.97452 11.7253 6.38873V10.2777C11.7253 10.6919 11.9519 11.0635 12.3173 11.249L13.3046 11.7471C13.4386 11.8161 13.582 11.8493 13.7253 11.8493C13.8973 11.8493 14.068 11.8006 14.2206 11.7051C14.5 11.5298 14.6666 11.226 14.6666 10.893V5.77486C14.6666 5.44186 14.5 5.13797 14.2206 4.962Z" fill="#A079EC"/>
<path id="Fill 3" d="M7.93671 13.3335H4.07534C2.46066 13.3335 1.33331 12.2201 1.33331 10.6262V6.04077C1.33331 4.44619 2.46066 3.3335 4.07534 3.3335H7.93671C9.5514 3.3335 10.6787 4.44619 10.6787 6.04077V10.6262C10.6787 12.2201 9.5514 13.3335 7.93671 13.3335Z" fill="#A079EC"/>
</g>
</g>
</svg>
