<svg width="16" height="16" viewBox="0 0 16 16" fill="none" xmlns="http://www.w3.org/2000/svg">
<g id="Camera">
<g id="Camera_2">
<path id="Stroke 1" fill-rule="evenodd" clip-rule="evenodd" d="M10.0269 2.701C10.7002 2.969 10.9062 3.90233 11.1816 4.20233C11.4569 4.50233 11.8509 4.60433 12.0689 4.60433C13.2276 4.60433 14.1669 5.54367 14.1669 6.70167V10.565C14.1669 12.1183 12.9069 13.3783 11.3536 13.3783H4.64689C3.09289 13.3783 1.83356 12.1183 1.83356 10.565V6.70167C1.83356 5.54367 2.77289 4.60433 3.93156 4.60433C4.14889 4.60433 4.54289 4.50233 4.81889 4.20233C5.09422 3.90233 5.29956 2.969 5.97289 2.701C6.64689 2.433 9.35356 2.433 10.0269 2.701Z" stroke="#040404" stroke-linecap="round" stroke-linejoin="round"/>
<path id="Stroke 13" d="M11.6637 6.33333H11.6697" stroke="#040404" stroke-width="2" stroke-linecap="round" stroke-linejoin="round"/>
<path id="Stroke 5" fill-rule="evenodd" clip-rule="evenodd" d="M10.1195 8.75215C10.1195 7.58148 9.1708 6.63281 8.00013 6.63281C6.82946 6.63281 5.8808 7.58148 5.8808 8.75215C5.8808 9.92281 6.82946 10.8715 8.00013 10.8715C9.1708 10.8715 10.1195 9.92281 10.1195 8.75215Z" stroke="#040404" stroke-linecap="round" stroke-linejoin="round"/>
</g>
</g>
</svg>
