<svg width="20" height="20" viewBox="0 0 20 20" fill="none" xmlns="http://www.w3.org/2000/svg">
<g id="Download">
<g id="Download_2">
<path id="Download_3" d="M9.35841 6.0756V2.73475C9.35841 2.37952 9.64174 2.0835 10.0001 2.0835C10.3209 2.0835 10.5927 2.33224 10.6358 2.64731L10.6417 2.73475V6.0756L14.625 6.07585C16.6083 6.07585 18.2378 7.69998 18.3293 9.7255L18.3333 9.90524V14.1047C18.3333 16.1444 16.7605 17.8187 14.8067 17.9127L14.6333 17.9168H5.36666C3.38332 17.9168 1.76173 16.3008 1.67069 14.2679L1.66666 14.0874L1.66666 9.89663C1.66666 7.85691 3.23158 6.17451 5.18499 6.08003L5.35832 6.07585H9.35832V11.4112L8.02499 10.0343C7.77499 9.77616 7.36666 9.77616 7.11666 10.0343C6.99166 10.1634 6.93332 10.3355 6.93332 10.5076C6.93332 10.6384 6.97066 10.7747 7.04959 10.8901L7.11666 10.9723L9.54166 13.4851C9.65832 13.6141 9.82499 13.683 9.99999 13.683C10.1389 13.683 10.2778 13.6352 10.3877 13.5445L10.45 13.4851L12.875 10.9723C13.125 10.7141 13.125 10.2925 12.875 10.0343C12.6477 9.79963 12.2896 9.77829 12.0385 9.97031L11.9667 10.0343L10.6417 11.4112V6.07585L9.35841 6.0756Z" fill="#4FAA89"/>
</g>
</g>
</svg>
