<svg width="12" height="16" viewBox="0 0 12 16" fill="none" xmlns="http://www.w3.org/2000/svg">
<path d="M8.66667 10.6668C10.1394 10.6668 11.3333 9.47292 11.3333 8.00016C11.3333 6.5274 10.1394 5.3335 8.66667 5.3335C7.19391 5.3335 6 6.5274 6 8.00016C6 9.47292 7.19391 10.6668 8.66667 10.6668Z" fill="#19BCFE"/>
<path fill-rule="evenodd" clip-rule="evenodd" d="M3.33348 15.9998C4.04072 15.9998 4.719 15.7189 5.21909 15.2188C5.71919 14.7187 6.00014 14.0404 6.00014 13.3332V10.6665H3.33348C2.62623 10.6665 1.94795 10.9475 1.44786 11.4476C0.947761 11.9476 0.666809 12.6259 0.666809 13.3332C0.666809 14.0404 0.947761 14.7187 1.44786 15.2188C1.94795 15.7189 2.62623 15.9998 3.33348 15.9998Z" fill="#09CF83"/>
<path fill-rule="evenodd" clip-rule="evenodd" d="M3.33348 10.6668H6.00014V5.3335H3.33348C2.62623 5.3335 1.94795 5.61445 1.44786 6.11454C0.947761 6.61464 0.666809 7.29292 0.666809 8.00016C0.666809 8.70741 0.947761 9.38568 1.44786 9.88578C1.94795 10.3859 2.62623 10.6668 3.33348 10.6668Z" fill="#A259FF"/>
<path fill-rule="evenodd" clip-rule="evenodd" d="M3.33348 5.33333H6.00014V0H3.33348C2.62623 0 1.94795 0.280952 1.44786 0.781049C0.947761 1.28115 0.666809 1.95942 0.666809 2.66667C0.666809 3.37391 0.947761 4.05219 1.44786 4.55229C1.94795 5.05238 2.62623 5.33333 3.33348 5.33333Z" fill="#F24E1E"/>
<path fill-rule="evenodd" clip-rule="evenodd" d="M8.66667 5.33333H6V0H8.66667C9.37391 0 10.0522 0.280952 10.5523 0.781049C11.0524 1.28115 11.3333 1.95942 11.3333 2.66667C11.3333 3.37391 11.0524 4.05219 10.5523 4.55229C10.0522 5.05238 9.37391 5.33333 8.66667 5.33333Z" fill="#FF7262"/>
</svg>
