<svg width="18" height="16" viewBox="0 0 18 16" fill="none" xmlns="http://www.w3.org/2000/svg">
<path fill-rule="evenodd" clip-rule="evenodd" d="M7.08011 13.5928H0.779114C0.365114 13.5928 0.0291138 13.2568 0.0291138 12.8428C0.0291138 12.4288 0.365114 12.0928 0.779114 12.0928H7.08011C7.49411 12.0928 7.83011 12.4288 7.83011 12.8428C7.83011 13.2568 7.49411 13.5928 7.08011 13.5928Z" fill="#4FAA89"/>
<path fill-rule="evenodd" clip-rule="evenodd" d="M16.1909 3.90039H9.8909C9.4769 3.90039 9.1409 3.56439 9.1409 3.15039C9.1409 2.73639 9.4769 2.40039 9.8909 2.40039H16.1909C16.6049 2.40039 16.9409 2.73639 16.9409 3.15039C16.9409 3.56439 16.6049 3.90039 16.1909 3.90039Z" fill="#4FAA89"/>
<mask id="mask0_259_335" style="mask-type:alpha" maskUnits="userSpaceOnUse" x="0" y="0" width="7" height="7">
<path fill-rule="evenodd" clip-rule="evenodd" d="M0 0.000366211H6.2258V6.19197H0V0.000366211Z" fill="white"/>
</mask>
<g mask="url(#mask0_259_335)">
<path fill-rule="evenodd" clip-rule="evenodd" d="M3.11279 1.5C2.22379 1.5 1.49979 2.216 1.49979 3.097C1.49979 3.977 2.22379 4.692 3.11279 4.692C4.00279 4.692 4.72579 3.977 4.72579 3.097C4.72579 2.216 4.00279 1.5 3.11279 1.5ZM3.11279 6.192C1.39679 6.192 -0.000213623 4.804 -0.000213623 3.097C-0.000213623 1.39 1.39679 0 3.11279 0C4.82979 0 6.22579 1.39 6.22579 3.097C6.22579 4.804 4.82979 6.192 3.11279 6.192Z" fill="#4FAA89"/>
</g>
<path fill-rule="evenodd" clip-rule="evenodd" d="M14.3877 11.208C13.4977 11.208 12.7737 11.924 12.7737 12.804C12.7737 13.685 13.4977 14.4 14.3877 14.4C15.2767 14.4 15.9997 13.685 15.9997 12.804C15.9997 11.924 15.2767 11.208 14.3877 11.208ZM14.3877 15.9C12.6707 15.9 11.2737 14.511 11.2737 12.804C11.2737 11.097 12.6707 9.70801 14.3877 9.70801C16.1037 9.70801 17.4997 11.097 17.4997 12.804C17.4997 14.511 16.1037 15.9 14.3877 15.9Z" fill="#4FAA89"/>
</svg>
