<svg width="17" height="16" viewBox="0 0 17 16" fill="none" xmlns="http://www.w3.org/2000/svg">
<path fill-rule="evenodd" clip-rule="evenodd" d="M11.6259 2C12.5199 2 13.3799 2.35333 14.0126 2.98733C14.6459 3.62 14.9999 4.47333 14.9999 5.36667V10.6333C14.9999 12.4933 13.4866 14 11.6259 14H5.0399C3.17923 14 1.66656 12.4933 1.66656 10.6333V5.36667C1.66656 3.50667 3.17256 2 5.0399 2H11.6259ZM12.6866 6.36L12.7399 6.30667C12.8993 6.11334 12.8993 5.83334 12.7326 5.64C12.6399 5.54067 12.5126 5.48 12.3799 5.46667C12.2399 5.45934 12.1066 5.50667 12.0059 5.6L8.99992 8C8.61325 8.32067 8.05925 8.32067 7.66659 8L4.66659 5.6C4.45926 5.44667 4.17259 5.46667 3.99992 5.64667C3.81992 5.82667 3.79992 6.11334 3.95259 6.31334L4.03992 6.4L7.07325 8.76667C7.44659 9.06 7.89925 9.22 8.37325 9.22C8.84592 9.22 9.30659 9.06 9.67925 8.76667L12.6866 6.36Z" fill="#777676"/>
</svg>
