<svg width="20" height="22" viewBox="0 0 20 22" fill="none" xmlns="http://www.w3.org/2000/svg">
<path d="M17.2319 4.31962C17.2168 4.20965 17.1204 4.14879 17.0408 4.14209C16.9613 4.13546 15.2795 4.01079 15.2795 4.01079C15.2795 4.01079 14.1115 2.85118 13.9832 2.72282C13.855 2.59455 13.6044 2.63356 13.5072 2.66219C13.4929 2.66641 13.252 2.74075 12.8535 2.86406C12.4634 1.74127 11.7747 0.709479 10.5633 0.709479C10.5299 0.709479 10.4954 0.710835 10.461 0.712793C10.1165 0.257157 9.68969 0.0592041 9.32105 0.0592041C6.49902 0.0592041 5.15079 3.58702 4.72807 5.37974C3.6315 5.71953 2.8525 5.96109 2.753 5.99235C2.14091 6.18435 2.12155 6.20364 2.04118 6.7804C1.9807 7.21705 0.37915 19.6026 0.37915 19.6026L12.8587 21.9408L19.6206 20.478C19.6206 20.478 17.2469 4.4296 17.232 4.31962H17.2319ZM12.1638 3.07738L11.1078 3.40421C11.1082 3.32979 11.1086 3.25657 11.1086 3.1765C11.1086 2.4787 11.0117 1.91685 10.8563 1.47146C11.4805 1.5498 11.8962 2.26003 12.1638 3.07738ZM10.082 1.60983C10.2555 2.04468 10.3684 2.66874 10.3684 3.51087C10.3684 3.55395 10.368 3.59335 10.3676 3.63319C9.68087 3.84591 8.93464 4.07685 8.18674 4.30855C8.60667 2.68787 9.39381 1.9051 10.082 1.60983ZM9.24354 0.816138C9.36534 0.816138 9.48804 0.857491 9.60547 0.938315C8.70105 1.3639 7.73163 2.43576 7.32224 4.57625L5.59837 5.11015C6.07789 3.4775 7.21649 0.816138 9.24347 0.816138H9.24354Z" fill="#95BF46"/>
<path d="M17.041 4.14206C16.9615 4.13543 15.2797 4.01077 15.2797 4.01077C15.2797 4.01077 14.1116 2.85115 13.9834 2.7228C13.9354 2.67504 13.8707 2.65056 13.8031 2.64001L12.8595 21.9406L19.6208 20.4779C19.6208 20.4779 17.247 4.42957 17.2321 4.3196C17.2169 4.20962 17.1206 4.14876 17.041 4.14206Z" fill="#5E8E3E"/>
<path d="M10.5635 7.87839L9.72977 10.3585C9.72977 10.3585 8.99927 9.96864 8.10381 9.96864C6.79106 9.96864 6.725 10.7925 6.725 11.0001C6.725 12.1328 9.67772 12.5668 9.67772 15.22C9.67772 17.3075 8.35374 18.6517 6.56855 18.6517C4.42633 18.6517 3.33081 17.3184 3.33081 17.3184L3.90441 15.4233C3.90441 15.4233 5.03051 16.39 5.98072 16.39C6.60162 16.39 6.85418 15.9012 6.85418 15.544C6.85418 14.0664 4.43175 14.0005 4.43175 11.5726C4.43175 9.52912 5.89847 7.55164 8.85917 7.55164C9.99995 7.55164 10.5635 7.87839 10.5635 7.87839Z" fill="white"/>
</svg>
