<svg width="32" height="32" viewBox="0 0 32 32" fill="none" xmlns="http://www.w3.org/2000/svg">
<path d="M29.3334 16.0001C29.3356 17.7563 28.9899 19.4955 28.316 21.1173C27.6421 22.7391 26.6536 24.2113 25.4074 25.4488C24.1714 26.6825 22.7045 27.6607 21.0903 28.3272C19.4761 28.9938 17.7464 29.3357 16.0001 29.3334C8.63606 29.3334 2.66673 23.3641 2.66673 16.0001C2.66207 12.5813 3.97531 9.2922 6.3334 6.81676C7.57762 5.50382 9.07667 4.45859 10.7388 3.74501C12.401 3.03144 14.1912 2.66454 16.0001 2.66676C17.7464 2.6645 19.4761 3.00641 21.0903 3.67297C22.7045 4.33952 24.1714 5.31764 25.4074 6.55143C26.6536 7.78891 27.6421 9.26108 28.316 10.8829C28.9899 12.5046 29.3356 14.2439 29.3334 16.0001Z" fill="#EA4C89"/>
<path d="M29.3332 16.0001C27.3878 16.0001 22.0212 15.2668 17.2178 17.3754C11.9998 19.6668 8.22183 23.2208 6.57516 25.4314" stroke="#C32361" stroke-width="2" stroke-linecap="round" stroke-linejoin="round"/>
<path d="M11.0001 3.63599C13.0867 5.56199 17.6401 10.466 19.3334 15.3333C21.0267 20.2013 21.6534 26.1867 22.0401 27.89" stroke="#C32361" stroke-width="2" stroke-linecap="round" stroke-linejoin="round"/>
<path d="M2.76917 14.3335C5.28783 14.4855 11.9552 14.6221 16.2218 12.8001C20.4885 10.9781 24.1598 7.62681 25.4192 6.56348" stroke="#C32361" stroke-width="2" stroke-linecap="round" stroke-linejoin="round"/>
<path d="M29.3334 16.0001C29.3356 17.7563 28.9899 19.4955 28.316 21.1173C27.6421 22.7391 26.6536 24.2113 25.4074 25.4488C24.1714 26.6825 22.7045 27.6607 21.0903 28.3272C19.4761 28.9938 17.7464 29.3357 16.0001 29.3334C8.63606 29.3334 2.66673 23.3641 2.66673 16.0001C2.66207 12.5813 3.97531 9.2922 6.3334 6.81676C7.57762 5.50382 9.07668 4.45859 10.7388 3.74501C12.401 3.03144 14.1912 2.66454 16.0001 2.66676C17.7464 2.6645 19.4761 3.00641 21.0903 3.67297C22.7045 4.33952 24.1714 5.31764 25.4074 6.55143C26.6536 7.78891 27.6421 9.26108 28.316 10.8829C28.9899 12.5046 29.3356 14.2439 29.3334 16.0001V16.0001Z" stroke="#C32361" stroke-width="2" stroke-linecap="round" stroke-linejoin="round"/>
</svg>
