<svg width="111" height="110" viewBox="0 0 111 110" fill="none" xmlns="http://www.w3.org/2000/svg">
<circle cx="55.5" cy="55" r="54.625" stroke="#4FAA89" stroke-width="0.75"/>
<path d="M27.4191 62.9323L27.5875 74.8072C27.5875 79.1866 26.998 83.0606 25.8189 86.4294C24.6398 89.7981 23.2081 92.4089 21.5238 94.2617C19.8394 96.1145 17.9023 97.6024 15.7127 98.7253C12.2316 100.578 8.66635 101.505 5.01687 101.505C4.84844 101.505 4.51156 101.083 4.00625 100.241C3.50094 99.3991 3.0237 98.2481 2.57453 96.7883C2.12536 95.3285 1.90078 93.981 1.90078 92.7458H2.74297C4.82036 92.7458 7.20656 92.1563 9.90156 90.9772C15.1231 88.3383 17.7339 82.1904 17.7339 72.5333C17.8462 68.8277 17.9023 64.5606 17.9023 59.732C17.9023 54.8473 17.7058 52.1804 17.3128 51.7312C16.5268 51.0014 14.8424 50.3276 12.2597 49.71L10.9964 49.4573C10.8841 49.2328 10.828 48.924 10.828 48.5309C10.828 45.9482 11.221 44.2639 12.007 43.4778C15.3758 41.7934 20.0359 40.9512 25.9873 40.9512C26.998 40.9512 27.5594 41.0074 27.6717 41.1197C27.5033 48.6994 27.4191 55.9703 27.4191 62.9323ZM21.9448 25.0339C23.5169 25.0339 24.7802 25.5392 25.7347 26.5498C26.6892 27.5605 27.1664 28.8799 27.1664 30.5081C27.1664 32.1364 26.5207 33.54 25.2294 34.7191C23.9942 35.842 22.5905 36.4034 21.0184 36.4034C19.5025 36.4034 18.2673 35.8981 17.3128 34.8875C16.4145 33.8769 15.9653 32.5855 15.9653 31.0134C15.9653 29.3852 16.5829 27.9816 17.8181 26.8025C19.0533 25.6234 20.4289 25.0339 21.9448 25.0339ZM69.056 63.185L68.8876 32.1083C68.8876 25.0901 69.028 21.4406 69.3087 21.1598C69.9824 20.4861 71.0773 19.8404 72.5932 19.2228C74.1653 18.6052 75.6532 18.2964 77.0568 18.2964C78.4605 18.2964 79.1623 18.4087 79.1623 18.6333C79.05 19.1947 78.8815 22.395 78.657 28.2342C78.4885 34.0172 78.4324 37.6106 78.4885 39.0142H79.836C86.0682 39.0142 91.1494 40.4459 95.0796 43.3094C96.6517 44.4884 98.0273 46.257 99.2063 48.6152C100.385 50.9171 100.975 53.6121 100.975 56.7002C100.975 62.034 98.8133 66.4976 94.4901 70.0909C90.1669 73.6281 84.8611 75.902 78.5727 76.9127C78.5727 78.204 78.5447 78.9058 78.4885 79.0181C77.7586 79.748 76.4673 80.3095 74.6145 80.7025C72.8178 81.0955 71.3299 81.292 70.1509 81.292C69.028 81.292 68.4665 81.2078 68.4665 81.0394C68.8595 79.4673 69.056 73.5158 69.056 63.185ZM78.7412 67.6486C80.201 67.6486 81.7169 67.424 83.289 66.9748C84.8611 66.4695 86.1244 65.8519 87.0788 65.122C88.0895 64.3921 88.9878 63.2411 89.7738 61.6691C90.616 60.097 91.0371 58.0477 91.0371 55.5211C91.0371 52.9945 90.1388 51.0575 88.3421 49.71C86.6016 48.3625 84.5803 47.6887 82.2784 47.6887L78.4043 47.9414V54.0052C78.4043 61.5848 78.5166 66.1327 78.7412 67.6486Z" fill="white"/>
<path d="M65.9083 57.795C65.9083 63.1289 64.2801 67.7609 61.0237 71.6911C57.8233 75.5652 53.444 77.5022 47.8855 77.5022C42.3832 77.5022 38.06 75.7897 34.9158 72.3648C31.7717 68.9399 30.1996 64.5044 30.1996 59.0583C30.1996 53.556 32.1366 48.6994 36.0107 44.4884C39.9409 40.2214 45.2186 38.0878 51.8438 38.0878C54.5388 38.2001 55.9986 38.3685 56.2232 38.5931C56.4478 38.8177 56.5601 39.3511 56.5601 40.1933C56.5601 41.0355 56.4758 41.9619 56.3074 42.9725C57.1496 42.9725 58.2164 43.4778 59.5077 44.4884C60.8552 45.4429 61.9501 46.4255 62.7923 47.4361C63.6344 48.4467 64.3643 49.8784 64.9819 51.7312C65.5995 53.5279 65.9083 55.5492 65.9083 57.795ZM53.6124 51.8997C52.3211 51.0575 51.0578 50.6364 49.8226 50.6364H49.1488C49.0365 50.4118 48.9804 49.9346 48.9804 49.2047C48.9804 48.4748 49.0646 47.773 49.233 47.0992C46.9311 47.0992 44.7694 48.1379 42.7482 50.2153C40.7831 52.2927 39.8005 55.1842 39.8005 58.8898C39.8005 63.2692 41.2042 66.3011 44.0115 67.9855C45.0782 68.6592 46.538 68.9961 48.3908 68.9961C50.2998 68.9961 52.0684 68.1258 53.6966 66.3853C55.381 64.6448 56.2232 62.0621 56.2232 58.6372C56.2232 55.2123 55.3529 52.9665 53.6124 51.8997Z" fill="#4FAA89"/>
<path d="M55.5 72.8546L79.4556 81.7329" stroke="#4FAA89" stroke-width="8.59375" stroke-linecap="round" stroke-linejoin="bevel"/>
</svg>
